<svg xmlns="http://www.w3.org/2000/svg" viewBox="0 0 432.6 268.61"><defs><style>.cls-1{isolation:isolate;}.cls-2{fill:#9d5033;}.cls-3{fill:#ce7250;}.cls-4{fill:#8d472e;}.cls-5{fill:#82422b;}.cls-6{fill:#643322;}.cls-15,.cls-7{fill:#ee313e;}.cls-10,.cls-11,.cls-12,.cls-13,.cls-7,.cls-8{fill-rule:evenodd;}.cls-14,.cls-8{fill:#ffcc04;}.cls-11,.cls-9{fill:#bb2030;}.cls-10{fill:#eaeaea;mix-blend-mode:multiply;}.cls-12{fill:#ccc;}.cls-13{fill:#e6e6e5;}.cls-15{stroke:#fff;stroke-miterlimit:10;stroke-width:0.25px;}</style></defs><g class="cls-1"><g id="Layer_1" data-name="Layer 1"><rect class="cls-2" x="198.87" y="127.02" width="130.65" height="193.19" transform="translate(-28.42 -138.6) rotate(3.4)"/><polygon class="cls-3" points="227.77 3.88 162.56 0 166.42 4.95 227.49 8.59 288.57 12.22 292.98 7.76 227.77 3.88"/><polygon class="cls-4" points="156.82 96.43 162.56 0 166.42 4.95 160.96 96.67 155.55 187.67 151.09 192.85 156.82 96.43"/><polygon class="cls-5" points="216.3 196.73 281.51 200.61 277.65 195.66 216.58 192.02 154.96 188.36 151.09 192.85 216.3 196.73"/><polygon class="cls-6" points="287.25 104.19 281.51 200.61 277.65 195.66 283.11 103.94 288.57 12.22 292.98 7.76 287.25 104.19"/><rect class="cls-2" x="209.72" y="136.24" width="36.9" height="41.67" transform="translate(-32.43 -136.58) rotate(3.4)"/><polygon class="cls-3" points="187.24 12.97 168.82 11.87 171.26 14.98 187.06 15.92 202.86 16.86 205.66 14.06 187.24 12.97"/><polygon class="cls-6" points="204.42 34.86 205.66 14.06 202.86 16.86 201.8 34.7 200.74 52.55 203.18 55.66 204.42 34.86"/><polygon class="cls-5" points="184.76 54.56 203.18 55.66 200.73 52.74 184.93 51.8 169.47 50.88 166.35 53.47 184.76 54.56"/><polygon class="cls-4" points="171.26 14.98 168.82 11.87 167.58 32.67 166.35 53.47 169.47 50.88 171.26 14.98"/><path class="cls-3" d="M237.75,139.73l-24.32-1.44-1.17,19.58S213.06,140.45,237.75,139.73Z" transform="translate(-42.16 -123.31)"/><rect class="cls-2" x="248.91" y="138.57" width="36.9" height="41.67" transform="translate(-32.23 -138.9) rotate(3.4)"/><polygon class="cls-3" points="226.44 15.3 208.02 14.2 210.46 17.31 226.26 18.25 242.06 19.19 244.85 16.39 226.44 15.3"/><polygon class="cls-6" points="243.62 37.19 244.85 16.39 242.06 19.19 241 37.04 239.94 54.88 242.38 57.99 243.62 37.19"/><polygon class="cls-5" points="223.96 56.9 242.38 57.99 239.93 55.07 224.13 54.13 208.66 53.21 205.54 55.8 223.96 56.9"/><polygon class="cls-4" points="210.46 17.31 208.02 14.2 206.78 35 205.54 55.8 208.66 53.21 210.46 17.31"/><path class="cls-3" d="M276.94,142.07l-24.31-1.45-1.17,19.58S252.25,142.78,276.94,142.07Z" transform="translate(-42.16 -123.31)"/><rect class="cls-2" x="288.26" y="140.91" width="36.9" height="41.67" transform="translate(-32.02 -141.24) rotate(3.4)"/><polygon class="cls-3" points="265.79 17.64 247.37 16.54 249.81 19.65 265.61 20.59 281.41 21.53 284.2 18.73 265.79 17.64"/><polygon class="cls-6" points="282.97 39.53 284.2 18.73 281.41 21.53 280.35 39.38 279.29 57.22 281.73 60.33 282.97 39.53"/><polygon class="cls-5" points="263.31 59.24 281.73 60.33 279.28 57.41 263.48 56.47 248.01 55.55 244.89 58.14 263.31 59.24"/><polygon class="cls-4" points="249.81 19.65 247.37 16.54 246.13 37.34 244.89 58.14 248.01 55.55 249.81 19.65"/><path class="cls-3" d="M316.29,144.41,292,143l-1.16,19.58S291.6,145.12,316.29,144.41Z" transform="translate(-42.16 -123.31)"/><rect class="cls-2" x="207.04" y="181.27" width="36.9" height="41.67" transform="translate(-29.77 -136.34) rotate(3.4)"/><polygon class="cls-3" points="184.56 58 166.14 56.91 168.58 60.02 184.38 60.95 200.18 61.9 202.98 59.1 184.56 58"/><polygon class="cls-6" points="201.74 79.89 202.98 59.1 200.18 61.9 199.12 79.74 198.06 97.58 200.5 100.69 201.74 79.89"/><polygon class="cls-5" points="182.09 99.6 200.5 100.69 198.05 97.78 182.25 96.83 166.79 95.92 163.67 98.5 182.09 99.6"/><polygon class="cls-4" points="168.58 60.02 166.14 56.91 164.91 77.7 163.67 98.5 166.79 95.92 168.58 60.02"/><path class="cls-3" d="M235.07,184.77l-24.32-1.45-1.17,19.58S210.38,185.48,235.07,184.77Z" transform="translate(-42.16 -123.31)"/><rect class="cls-2" x="246.24" y="183.6" width="36.9" height="41.67" transform="translate(-29.56 -138.66) rotate(3.4)"/><polygon class="cls-3" points="223.76 60.33 205.34 59.24 207.78 62.35 223.58 63.29 239.38 64.23 242.17 61.43 223.76 60.33"/><polygon class="cls-6" points="240.94 82.23 242.17 61.43 239.38 64.23 238.32 82.07 237.26 99.92 239.7 103.03 240.94 82.23"/><polygon class="cls-5" points="221.28 101.93 239.7 103.03 237.25 100.11 221.45 99.17 205.99 98.25 202.87 100.83 221.28 101.93"/><polygon class="cls-4" points="207.78 62.35 205.34 59.24 204.1 80.04 202.87 100.83 205.99 98.25 207.78 62.35"/><path class="cls-3" d="M274.26,187.1,250,185.65l-1.17,19.58S249.58,187.81,274.26,187.1Z" transform="translate(-42.16 -123.31)"/><rect class="cls-2" x="285.58" y="185.94" width="36.9" height="41.67" transform="translate(-29.35 -141) rotate(3.4)"/><polygon class="cls-3" points="263.11 62.67 244.69 61.58 247.13 64.69 262.93 65.63 278.73 66.57 281.52 63.77 263.11 62.67"/><polygon class="cls-6" points="280.29 84.57 281.52 63.77 278.73 66.57 277.67 84.41 276.61 102.26 279.05 105.37 280.29 84.57"/><polygon class="cls-5" points="260.63 104.27 279.05 105.37 276.6 102.45 260.8 101.51 245.34 100.59 242.22 103.17 260.63 104.27"/><polygon class="cls-4" points="247.13 64.69 244.69 61.58 243.45 82.38 242.22 103.17 245.34 100.59 247.13 64.69"/><path class="cls-3" d="M313.61,189.44,289.3,188l-1.17,19.58S288.93,190.16,313.61,189.44Z" transform="translate(-42.16 -123.31)"/><rect class="cls-2" x="204.38" y="225.94" width="36.9" height="41.67" transform="translate(-27.12 -136.1) rotate(3.4)"/><polygon class="cls-3" points="181.9 102.67 163.49 101.57 165.93 104.68 181.73 105.62 197.53 106.56 200.32 103.77 181.9 102.67"/><polygon class="cls-6" points="199.08 124.56 200.32 103.77 197.53 106.56 196.47 124.41 195.4 142.25 197.84 145.36 199.08 124.56"/><polygon class="cls-5" points="179.43 144.27 197.84 145.36 195.39 142.44 179.59 141.5 164.13 140.58 161.01 143.17 179.43 144.27"/><polygon class="cls-4" points="165.93 104.68 163.49 101.57 162.25 122.37 161.01 143.17 164.13 140.58 165.93 104.68"/><path class="cls-3" d="M232.41,229.44,208.09,228l-1.16,19.58S207.72,230.15,232.41,229.44Z" transform="translate(-42.16 -123.31)"/><rect class="cls-2" x="243.58" y="228.27" width="36.9" height="41.67" transform="translate(-26.91 -138.43) rotate(3.4)"/><polygon class="cls-3" points="221.1 105 202.68 103.91 205.12 107.02 220.92 107.96 236.72 108.9 239.52 106.1 221.1 105"/><polygon class="cls-6" points="238.28 126.9 239.52 106.1 236.72 108.9 235.66 126.74 234.6 144.58 237.04 147.69 238.28 126.9"/><polygon class="cls-5" points="218.63 146.6 237.04 147.69 234.59 144.78 218.79 143.84 203.33 142.92 200.21 145.5 218.63 146.6"/><polygon class="cls-4" points="205.12 107.02 202.68 103.91 201.45 124.7 200.21 145.5 203.33 142.92 205.12 107.02"/><path class="cls-3" d="M271.61,231.77l-24.32-1.45-1.17,19.58S246.92,232.48,271.61,231.77Z" transform="translate(-42.16 -123.31)"/><rect class="cls-2" x="282.93" y="230.61" width="36.9" height="41.67" transform="translate(-26.7 -140.76) rotate(3.4)"/><polygon class="cls-3" points="260.45 107.34 242.03 106.25 244.47 109.36 260.27 110.3 276.07 111.24 278.87 108.44 260.45 107.34"/><polygon class="cls-6" points="277.63 129.24 278.87 108.44 276.07 111.24 275.01 129.08 273.95 146.93 276.39 150.03 277.63 129.24"/><polygon class="cls-5" points="257.98 148.94 276.39 150.03 273.94 147.12 258.14 146.18 242.68 145.26 239.56 147.84 257.98 148.94"/><polygon class="cls-4" points="244.47 109.36 242.03 106.25 240.79 127.05 239.56 147.84 242.68 145.26 244.47 109.36"/><path class="cls-3" d="M311,234.11l-24.32-1.45-1.17,19.58S286.27,234.82,311,234.11Z" transform="translate(-42.16 -123.31)"/><rect class="cls-2" x="201.72" y="270.61" width="36.9" height="41.67" transform="translate(-24.47 -135.87) rotate(3.4)"/><polygon class="cls-3" points="179.24 147.34 160.83 146.24 163.27 149.35 179.07 150.29 194.87 151.23 197.66 148.44 179.24 147.34"/><polygon class="cls-6" points="196.42 169.23 197.66 148.44 194.87 151.23 193.81 169.08 192.75 186.92 195.19 190.03 196.42 169.23"/><polygon class="cls-5" points="176.77 188.94 195.19 190.03 192.74 187.11 176.93 186.17 161.47 185.25 158.35 187.84 176.77 188.94"/><polygon class="cls-4" points="163.27 149.35 160.83 146.24 159.59 167.04 158.35 187.84 161.47 185.25 163.27 149.35"/><path class="cls-3" d="M229.75,274.11l-24.32-1.45-1.16,19.58S205.06,274.82,229.75,274.11Z" transform="translate(-42.16 -123.31)"/><rect class="cls-2" x="240.92" y="272.94" width="36.9" height="41.67" transform="translate(-24.26 -138.19) rotate(3.4)"/><polygon class="cls-3" points="218.44 149.67 200.03 148.57 202.47 151.69 218.27 152.63 234.07 153.56 236.86 150.77 218.44 149.67"/><polygon class="cls-6" points="235.62 171.56 236.86 150.77 234.07 153.56 233.01 171.41 231.94 189.25 234.38 192.36 235.62 171.56"/><polygon class="cls-5" points="215.97 191.27 234.38 192.36 231.93 189.44 216.13 188.5 200.67 187.59 197.55 190.17 215.97 191.27"/><polygon class="cls-4" points="202.47 151.69 200.03 148.57 198.79 169.37 197.55 190.17 200.67 187.59 202.47 151.69"/><path class="cls-3" d="M269,276.44,244.63,275l-1.16,19.58S244.26,277.15,269,276.44Z" transform="translate(-42.16 -123.31)"/><rect class="cls-2" x="280.27" y="275.28" width="36.9" height="41.67" transform="translate(-24.05 -140.52) rotate(3.4)"/><polygon class="cls-3" points="257.79 152.01 239.38 150.92 241.81 154.03 257.62 154.97 273.42 155.91 276.21 153.11 257.79 152.01"/><polygon class="cls-6" points="274.97 173.91 276.21 153.11 273.42 155.91 272.36 173.75 271.29 191.59 273.74 194.7 274.97 173.91"/><polygon class="cls-5" points="255.32 193.61 273.74 194.7 271.28 191.79 255.48 190.85 240.02 189.93 236.9 192.51 255.32 193.61"/><polygon class="cls-4" points="241.81 154.03 239.38 150.92 238.14 171.72 236.9 192.51 240.02 189.93 241.81 154.03"/><path class="cls-3" d="M308.3,278.78,284,277.33l-1.16,19.58S283.61,279.49,308.3,278.78Z" transform="translate(-42.16 -123.31)"/><path class="cls-7" d="M249.42,227c2.14,1.69,4.61,3.2,6.66,3.32,4.77.29,5.08,4.09,14.61,13.7s15.52,7.31,24.73,13.44,18.71,7.23,24.37,10.49a68.61,68.61,0,0,1,7.89,4.84l-5.48,92.1-134.28-8,7.42-124.77h0a5.34,5.34,0,0,0-1.72-4c-1.86-1.71-7-5.87-10.46-7.4s-8.11-.09-8.11-.09,6.35-8.39,12-9.92,9.82-8.09,9.91-9.58-3.47-9.88-3.05-17,2.38-13.16,2.72-10,12.09,15.88,14,18.92-.37,6.1-.85,9.79,12.42,1.27,15.07,1.43,4.43,1.59,7.51,7.89,1.9,3.84,6.8,6.25S249.42,227,249.42,227Z" transform="translate(-42.16 -123.31)"/><path class="cls-8" d="M257.71,230.61c2.29.72,3.63,2.79,6.87,6.69a6.83,6.83,0,0,0-1.48-.24,5.42,5.42,0,0,0-4,1.25,5.41,5.41,0,0,0-.62,7.39,6.24,6.24,0,0,0,3.84,1.85l-.65,7.55q-5.84-1.09-8.84-4.61a11.92,11.92,0,0,1-2.68-8.84,12.35,12.35,0,0,1,4.17-8.86,12.07,12.07,0,0,1,3.4-2.18Zm10.71,11c.69.75,1.45,1.53,2.27,2.36a37.85,37.85,0,0,0,4,3.54,11.78,11.78,0,0,1-3.24,4.53,14.22,14.22,0,0,1-7.19,3.11l-.06-7.77q4-1.06,4.24-4.7a5.42,5.42,0,0,0,0-1.07Zm15.36,10.6c1.25.44,2.5.85,3.78,1.32l-6,101.11-3.84-.22,6.08-102.21Zm-43.19-33a30.31,30.31,0,0,1,3.7,2.72L236.55,352l-3.84-.23,7.88-132.55ZM274,270.79a12,12,0,0,1-4.27,8.62,12.84,12.84,0,0,1-18-1.1,12.77,12.77,0,1,1,19.13-16.93,12.59,12.59,0,0,1,3.15,9.41Zm-7.16-.64a5.07,5.07,0,0,0-1.4-3.88,5.74,5.74,0,0,0-7.88-.46,5.24,5.24,0,0,0-.45,7.58,5.79,5.79,0,0,0,7.88.46,5,5,0,0,0,1.85-3.7Zm5.66,16-.43,7.2-14.42-.85a3.42,3.42,0,0,0-2.29.4,3.06,3.06,0,0,0-.68,2.12l0,.37-7-.42.12-1.92a8.11,8.11,0,0,1,2.67-6,8.91,8.91,0,0,1,6.52-1.82l15.58.93ZM259.11,307l-6.41-.38.13-2.07-5.79-.35.43-7.2,15.44.91a9.51,9.51,0,0,1,6.8,2.86,9.25,9.25,0,0,1,2.06,7q-.25,4.28-2.62,6.19c-1.58,1.27-3.92,1.81-7,1.63l-15.68-.94.42-7.2,15.21.9a3.92,3.92,0,0,0,2-.22,1.37,1.37,0,0,0,.62-1.19c.06-1.15-.73-1.76-2.38-1.86l-3-.18-.12,2.07Zm3.71,23.63-17.29-1,.43-7.2,17.29,1,.32-5.53,7,.42-1.08,18.23-7-.41.33-5.5Zm-3.73,20.95-5.39-.32.28-4.69a2.32,2.32,0,0,0-.21-1.37,1.41,1.41,0,0,0-2-.11,3.7,3.7,0,0,0-.34,1.65l-.29,4.84-6.92-.41.34-5.66a8.91,8.91,0,0,1,2.27-6,7.06,7.06,0,0,1,5.64-1.79l9.51.57a7.22,7.22,0,0,1,5.31,2.32,7.83,7.83,0,0,1,1.58,5.76l-.37,6.26-7-.42.28-4.6c.07-1.23-.3-1.86-1.11-1.91a1.07,1.07,0,0,0-1,.38,3.23,3.23,0,0,0-.37,1.54l-.23,4Z" transform="translate(-42.16 -123.31)"/><rect class="cls-9" x="248.76" y="299.57" width="11.9" height="134.52" transform="translate(-168.77 476) rotate(-86.6)"/><path class="cls-10" d="M327.68,272.79a68.61,68.61,0,0,0-7.89-4.84c-3.17-1.82-7.54-3-12.39-4.71-2.49-.43-5-.75-7.44-1.35-3.79-.94-7.07-2.75-10.64-4.21-7-2.85-13.15-4.7-18.63-10.23-9.53-9.61-9.84-13.42-14.61-13.7-2-.12-4.52-1.64-6.66-3.32,0,0-5.28-6.1-10.19-8.52s-3.72.05-6.8-6.25-4.86-7.74-7.51-7.89c-1.73-.11-7.81.89-11.71.57l-.69-.08h-.1l-.53-.1-.14,0a4,4,0,0,1-1-.34l-.11-.05a2.43,2.43,0,0,1-.29-.2l-.07-.05a1.33,1.33,0,0,1-.25-.29.25.25,0,0,1,0-.07,1.36,1.36,0,0,1-.11-.28.3.3,0,0,1,0-.1,1.33,1.33,0,0,1,0-.4,15,15,0,0,1,.49-2.25,1.21,1.21,0,0,1-.49-1.18,52.63,52.63,0,0,1,1.36-5.28,4.79,4.79,0,0,0-.51-1.08c-1.95-3-13.7-15.71-14-18.92a3.4,3.4,0,0,0-.07-.44s0-.06,0-.08a.86.86,0,0,0-.1-.25s0,0,0,0a.22.22,0,0,0-.13-.08.21.21,0,0,0-.15.07l0,0a1,1,0,0,0-.15.21c-.7,1.14-1.67,5.29-2,10.05.44,6.34,3.08,12.78,3,14.07a4.14,4.14,0,0,1-.46,1.3l.18.63c0,.2.1.39.14.56l0,.15a2.73,2.73,0,0,1,.06.34.6.6,0,0,1,0,.12,2.23,2.23,0,0,1,0,.33,2.26,2.26,0,0,1-.06.3l0,.11c-.62,2-4.56,7.76-9.82,9.17-3,.8-6.16,3.51-8.5,5.9a10.11,10.11,0,0,1,4.58.68c3.49,1.53,8.6,5.69,10.46,7.4a5.34,5.34,0,0,1,1.72,4h0l-.09,1.5a24,24,0,0,1,3.92,6.41c1.52,4,.05,4.66,1.52,4.08s10.72-2,14.65-1,16.12,6.14,17,7.13,6.84-.93,13.1,1,6.63,2.66,13.15,2.51,10.37,0,13.47,1.6a87.28,87.28,0,0,0,8.54,3.38c2.39,1.88,4.43,3.4,6.31,3.82,3.28.73,16.65,5.18,19.85,6.17,5.17,1.6,9.17,5.79,14.71,6.29,1.66.15,4.22,1.53,6,1.56Z" transform="translate(-42.16 -123.31)"/><path class="cls-11" d="M194.72,229.6a5.18,5.18,0,0,0-1.1-1.43c-1.86-1.71-7-5.87-10.46-7.4s-8.11-.09-8.11-.09,6.35-8.39,12-9.92,9.82-8.09,9.91-9.58c.06-1.12-1.93-6.14-2.74-11.6,3.14,2.74,9,7.46,15.69,12.74a5.58,5.58,0,0,0-.09.59c-.17,1.29,1.29,1.83,3.39,2,14.84,11.66,31.95,24.76,31.95,24.76l42.59,28.17s-12.64-4.21-15.73-5.86-6.95-1.74-13.47-1.59-6.88-.55-13.15-2.52-12.23-.06-13.1-1-13.06-6.1-17-7.13-13.19.41-14.65,1,0-.13-1.52-4.08a24.3,24.3,0,0,0-4.45-7Z" transform="translate(-42.16 -123.31)"/><path class="cls-12" d="M249.42,227c2.14,1.69,4.61,3.2,6.66,3.32,4.77.29,5.08,4.09,14.61,13.7s15.52,7.31,24.73,13.44,18.71,7.23,24.37,10.49a68.61,68.61,0,0,1,7.89,4.84s-7.7-.74-11-2.4-6.74-4.05-9.93-5-16.57-5.44-19.85-6.17-7-4.77-12.27-8.31-26.08-8.46-32.8-11.79-23.42-8.57-31.71-16.77S197.76,211,196.89,207.82a13.74,13.74,0,0,1,0-6.11,2.36,2.36,0,0,0,.13-.53c.08-1.49-3.47-9.88-3.05-17s2.38-13.16,2.72-10,12.09,15.88,14,18.92-.37,6.1-.85,9.79,12.42,1.27,15.07,1.43,4.43,1.59,7.51,7.89,1.9,3.84,6.8,6.25S249.42,227,249.42,227Z" transform="translate(-42.16 -123.31)"/><path class="cls-13" d="M249.42,227c2.14,1.69,4.61,3.2,6.66,3.32,4.77.29,5.08,4.09,14.61,13.7s15.52,7.31,24.73,13.44,18.71,7.23,24.37,10.49a68.61,68.61,0,0,1,7.89,4.84s-7.7-.74-11-2.4-6.74-4.05-9.93-5-16.57-5.44-19.85-6.17-7-4.77-12.27-8.31c-2.71-1.81-9.53-4-16.44-6.15-.74-2.49-1.54-5.08-2.29-7.39-2.43-7.43-14.94-13.72-16.65-15.22s-3.3-1.39-4.26,4.6-.14,2.35-1,5.79a4.8,4.8,0,0,0,.66,3.48c-2.78-1.15-5.9-2.44-9-3.9a17.73,17.73,0,0,1,4.28-4.34c2.85-2.09,1.25-4.38,1.54-8s-2.1-8.3-3.71-10.26-5.22-2.37-6.29-1-1.86-.14-2.28-.9-3.67.28-5.69.13-2.18-.23-3.07-1.48-.54-.43-1.83,1.22-1.83,8.4-1.83,8.4-.67-6.56-1.55-7.54,1-5.92,1-7.92,1.22-5-1.34-6.59,0-3.73-2.33-5.46-2.43-2.27-4.75-7.33a21,21,0,0,1-1.78-7.32c.32-.53.58-.42.68.57.34,3.21,12.09,15.88,14,18.92s-.37,6.1-.85,9.79,12.42,1.27,15.07,1.43,4.43,1.59,7.51,7.89,1.9,3.84,6.8,6.25S249.42,227,249.42,227Z" transform="translate(-42.16 -123.31)"/><path class="cls-14" d="M111,348.27a2,2,0,0,1-.88-.21,214.79,214.79,0,0,1-67.47-52.3,2,2,0,0,1,1.2-3.26L93.34,285,101.05,244a2,2,0,0,1,1.42-1.55,2,2,0,0,1,2,.6,133.69,133.69,0,0,0,39.43,30.62,2,2,0,0,1,1.06,1.53,2,2,0,0,1-.66,1.73L101.4,314.36c.92,4.52,4.76,21.84,11.21,30.76a2,2,0,0,1-1.61,3.15ZM48,295.88a210.64,210.64,0,0,0,57.8,45.51C100.25,330,97.42,314.74,97.28,314a2,2,0,0,1,.64-1.85l41.6-36.31a137.55,137.55,0,0,1-35.31-27.2L97,287.15a2,2,0,0,1-1.66,1.59Z" transform="translate(-42.16 -123.31)"/><path class="cls-14" d="M111,348.27h-.23a2,2,0,0,1-1.38-.81c-7.94-11-12-32.56-12.11-33.47a2,2,0,0,1,3.45-1.65,213.38,213.38,0,0,0,22.7,22.7,2,2,0,0,1,0,3l-11.14,9.75A2,2,0,0,1,111,348.27Zm-8.16-27.61c1.66,6.57,4.54,16.12,8.55,22.64l7.72-6.76A213.59,213.59,0,0,1,102.84,320.66Z" transform="translate(-42.16 -123.31)"/><path class="cls-14" d="M405.93,348.27a2,2,0,0,1-1.61-3.15c6.45-8.93,10.29-26.24,11.21-30.76L372.62,276.9a2,2,0,0,1,.4-3.26A133.69,133.69,0,0,0,412.45,243a2,2,0,0,1,3.43.95L423.59,285l49.48,7.47a2,2,0,0,1,1.21,3.26,214.94,214.94,0,0,1-67.47,52.3A2,2,0,0,1,405.93,348.27Zm-28.52-72.45L419,312.13a2,2,0,0,1,.65,1.85c-.14.76-3,16-8.56,27.41a210.59,210.59,0,0,0,57.79-45.51l-47.28-7.14a2,2,0,0,1-1.65-1.59l-7.23-38.53A137.55,137.55,0,0,1,377.41,275.82Z" transform="translate(-42.16 -123.31)"/><path class="cls-14" d="M405.93,348.27a2,2,0,0,1-1.31-.49L393.49,338a2,2,0,0,1,0-3,212.36,212.36,0,0,0,22.69-22.7,2,2,0,0,1,3.46,1.65c-.17.91-4.17,22.47-12.11,33.47a2,2,0,0,1-1.39.81Zm-8.12-11.73,7.72,6.76c4-6.52,6.9-16.07,8.56-22.64A215.62,215.62,0,0,1,397.81,336.54Z" transform="translate(-42.16 -123.31)"/><path class="cls-14" d="M258.47,389.6A212.56,212.56,0,0,1,120.84,338a217.53,217.53,0,0,1-23.12-23.12,2,2,0,0,1,.2-2.79l58.22-50.81a2,2,0,0,1,1.44-.48,1.93,1.93,0,0,1,1.36.68,133.07,133.07,0,0,0,99.54,46.26A133.09,133.09,0,0,0,358,261.52a1.93,1.93,0,0,1,1.36-.68,2,2,0,0,1,1.44.48L419,312.13a2,2,0,0,1,.2,2.79A216.51,216.51,0,0,1,396.09,338,212.55,212.55,0,0,1,258.47,389.6ZM102,313.82A213.18,213.18,0,0,0,123.43,335a205.48,205.48,0,0,0,270.07,0,213.09,213.09,0,0,0,21.4-21.21l-55.23-48.21a137,137,0,0,1-101.19,46.14,137,137,0,0,1-101.22-46.14Z" transform="translate(-42.16 -123.31)"/><path class="cls-14" d="M155.25,258.78s91.23,116.94,207.75,0l56.68,53.89S273.62,492.06,97.24,311Z" transform="translate(-42.16 -123.31)"/><path class="cls-15" d="M173.48,324.78q-6.1-2.77-12.06-6l3.57-6.68a12.34,12.34,0,0,0,1.59-3.84c0-.61-.38-1.13-1.19-1.58a2,2,0,0,0-2.23-.1,13.67,13.67,0,0,0-2.49,3.55l-10,17.63a11.34,11.34,0,0,0-1.62,3.85c0,.73.45,1.37,1.45,1.92a2.17,2.17,0,0,0,2.35.17,12.36,12.36,0,0,0,2.6-3.79l2.58-4.83q6.16,3.3,12.48,6.16l-.71,1.55q-2.79,6.17-5.09,8.23c-1.53,1.38-3.9,2.11-7.11,2.12a22,22,0,0,1-10.5-3.05,25.7,25.7,0,0,1-8.6-7.09c-1.83-2.53-2.53-5-2.15-7.25s1.77-5.21,4.11-8.79l7-10.66a52.24,52.24,0,0,1,4.19-5.71A9.71,9.71,0,0,1,156,298a12.59,12.59,0,0,1,6-.34,20.79,20.79,0,0,1,6.76,2.45,20.2,20.2,0,0,1,7,5.85,10.1,10.1,0,0,1,2.16,6.38c-.12,2.06-1,5-2.69,8.66Z" transform="translate(-42.16 -123.31)"/><path class="cls-15" d="M195.82,313.35l-3.3,9.24a12.07,12.07,0,0,1,3.83-.73,11.85,11.85,0,0,1,3.86.59,10,10,0,0,1,4.73,2.94,6.07,6.07,0,0,1,1.74,4,31.63,31.63,0,0,1-1.32,6.83q-3.2,11.9-6.4,23.81-6.86-1.85-13.61-4.11l8-23.86a13.7,13.7,0,0,0,.94-3.92,1.5,1.5,0,0,0-1.21-1.35,1.53,1.53,0,0,0-1.76.35,10.88,10.88,0,0,0-1.6,3.29q-4.29,12-8.59,24-6.72-2.4-13.32-5.23,8.6-20,17.18-40.1Q190.36,311.4,195.82,313.35Z" transform="translate(-42.16 -123.31)"/><path class="cls-15" d="M237.57,343.62l-.9,8.71a29.87,29.87,0,0,1-1.34,7,9,9,0,0,1-3.08,3.89,11.83,11.83,0,0,1-5.58,2.18,24.31,24.31,0,0,1-7.49-.24,29.87,29.87,0,0,1-7.66-2.28,11.08,11.08,0,0,1-4.4-3.43,8.59,8.59,0,0,1-1.56-4.36,23,23,0,0,1,.92-6.81c.73-3,1.47-5.93,2.2-8.89a20.36,20.36,0,0,1,3.07-7.27,9.72,9.72,0,0,1,5.24-3.41,17.53,17.53,0,0,1,8.06-.14,21.74,21.74,0,0,1,6.65,2.16,11.84,11.84,0,0,1,4.08,3.4,10,10,0,0,1,1.78,3.83A19.83,19.83,0,0,1,237.57,343.62Zm-12.14-4.35a10.87,10.87,0,0,0,.23-3.47,1.41,1.41,0,0,0-1.29-.95,1.49,1.49,0,0,0-1.57.45,10,10,0,0,0-1,3.33q-1.45,8-2.92,15.88a8.25,8.25,0,0,0-.2,3.32,1.65,1.65,0,0,0,1.44,1,1.69,1.69,0,0,0,1.72-.42,7.56,7.56,0,0,0,.88-2.92Z" transform="translate(-42.16 -123.31)"/><path class="cls-15" d="M269.78,345.41q-6,.3-12,.26l0-4.12a7.39,7.39,0,0,0-.37-2.92,1.51,1.51,0,0,0-1.46-.79,1.49,1.49,0,0,0-1.44.65,7.77,7.77,0,0,0-.44,3q-.19,8.44-.41,16.87a5.43,5.43,0,0,0,.54,2.88,2,2,0,0,0,1.78,1,1.89,1.89,0,0,0,1.89-1,9.71,9.71,0,0,0,.51-3.77c0-1.42,0-2.84,0-4.26q5.88,0,11.75-.28a43,43,0,0,1-.06,6.44,8.86,8.86,0,0,1-2.08,4.49,11.44,11.44,0,0,1-5,3.54,21.48,21.48,0,0,1-7.85,1.14,21.25,21.25,0,0,1-9.38-1.93,9.33,9.33,0,0,1-4.56-4.74c-.79-2-1-4.68-.72-8.16l.87-10.12a17.83,17.83,0,0,1,1.61-6.76,9.77,9.77,0,0,1,4.63-3.82,17.47,17.47,0,0,1,8-1.52,17.86,17.86,0,0,1,8,1.79,9.63,9.63,0,0,1,4.62,4.4A21.49,21.49,0,0,1,269.78,345.41Z" transform="translate(-42.16 -123.31)"/><path class="cls-15" d="M301.94,340.31l1.8,8.57a28.91,28.91,0,0,1,.85,7,8.91,8.91,0,0,1-1.75,4.64,11.84,11.84,0,0,1-4.66,3.78A24.22,24.22,0,0,1,291,366.4a29.67,29.67,0,0,1-8,.16,10.94,10.94,0,0,1-5.21-1.93A8.72,8.72,0,0,1,275,361a23.51,23.51,0,0,1-1.2-6.76c-.2-3.05-.41-6.1-.61-9.14a20.46,20.46,0,0,1,.69-7.86,9.74,9.74,0,0,1,3.93-4.84,17.6,17.6,0,0,1,7.62-2.59,21.32,21.32,0,0,1,7,0,12,12,0,0,1,4.94,2,10.3,10.3,0,0,1,2.87,3.11A20,20,0,0,1,301.94,340.31ZM289,339.86a10.7,10.7,0,0,0-.83-3.37,1.43,1.43,0,0,0-1.52-.51,1.5,1.5,0,0,0-1.36.9,9.87,9.87,0,0,0,.08,3.48q1,8,2.06,16a8.37,8.37,0,0,0,.82,3.22,1.62,1.62,0,0,0,1.69.55,1.67,1.67,0,0,0,1.5-.92,7.23,7.23,0,0,0-.05-3Q290.24,348,289,339.86Z" transform="translate(-42.16 -123.31)"/><path class="cls-15" d="M315.63,315.65l1.65,5.27a17.25,17.25,0,0,0-4.06,1.55c-.37.32-.42.95-.15,1.88l.31,1.09q2.44-.7,4.87-1.47c.56,1.8,1.13,3.6,1.69,5.4l-2.82.87q4.19,14,8.36,28-6.81,2-13.71,3.64-3.31-14.24-6.64-28.47l-2.48.56c-.4-1.84-.81-3.68-1.21-5.53l2.41-.54a27.43,27.43,0,0,1-.82-4.65,4,4,0,0,1,.77-2.36,6.83,6.83,0,0,1,2.42-2.06,27.25,27.25,0,0,1,5.36-2C312.93,316.48,314.28,316.07,315.63,315.65Z" transform="translate(-42.16 -123.31)"/><path class="cls-15" d="M345.86,312,361.67,344q-6.59,3.25-13.33,6.06l-.91-2.83a8.93,8.93,0,0,1-2.35,3.89,12.31,12.31,0,0,1-4.35,2.65,13.38,13.38,0,0,1-5.32,1,6.57,6.57,0,0,1-3.68-1.17,6.93,6.93,0,0,1-2.1-2.44,47.58,47.58,0,0,1-2.14-5.78Q323.74,334,320,322.51q5.73-1.87,11.36-4.1l9,22.62a19.58,19.58,0,0,0,2.13,4.49c.39.4,1,.43,1.94.06s1.43-.88,1.4-1.45a24.4,24.4,0,0,0-1.74-4.91q-4.63-11.1-9.28-22.21Q340.38,314.67,345.86,312Z" transform="translate(-42.16 -123.31)"/><path class="cls-15" d="M360.49,304l2,4.28c-.16-3.83,1.1-6.69,3.84-8.72l6.9,10.52a14,14,0,0,0-4.05,3.54,3.66,3.66,0,0,0-.61,3,33.73,33.73,0,0,0,3.1,5.89L379,334.57q-6.24,3.78-12.67,7.13L349.77,310Q355.2,307.16,360.49,304Z" transform="translate(-42.16 -123.31)"/></g></g></svg>