<svg xmlns="http://www.w3.org/2000/svg" viewBox="0 0 1421.84 375.09"><defs><style>.cls-1{isolation:isolate;}.cls-16,.cls-2,.cls-8{fill:#ee313e;}.cls-3{fill:#9d5033;}.cls-4{fill:#ce7250;}.cls-5{fill:#8d472e;}.cls-6{fill:#82422b;}.cls-7{fill:#643322;}.cls-11,.cls-12,.cls-13,.cls-14,.cls-8,.cls-9{fill-rule:evenodd;}.cls-15,.cls-9{fill:#ffcc04;}.cls-10,.cls-12{fill:#bb2030;}.cls-11{fill:#eaeaea;mix-blend-mode:multiply;}.cls-13{fill:#ccc;}.cls-14{fill:#e6e6e5;}.cls-16,.cls-17{stroke:#fff;stroke-miterlimit:10;}.cls-16{stroke-width:0.25px;}.cls-17{font-size:49px;fill:#fff;font-family:MicrosoftUighur, Microsoft Uighur;}</style></defs><g class="cls-1"><g id="Layer_1" data-name="Layer 1"><rect class="cls-2" width="1421.84" height="375.09"/><rect class="cls-3" x="644.1" y="38.31" width="130.65" height="193.19" transform="translate(9.26 -41.89) rotate(3.4)"/><polygon class="cls-4" points="715.16 38.48 649.95 34.6 653.81 39.56 714.88 43.19 775.96 46.82 780.37 42.36 715.16 38.48"/><polygon class="cls-5" points="644.22 131.03 649.95 34.6 653.81 39.56 648.35 131.28 642.94 222.28 638.48 227.46 644.22 131.03"/><polygon class="cls-6" points="703.69 231.34 768.9 235.21 765.04 230.26 703.97 226.63 642.35 222.96 638.48 227.46 703.69 231.34"/><polygon class="cls-7" points="774.64 138.79 768.9 235.21 765.04 230.26 770.5 138.54 775.96 46.82 780.37 42.36 774.64 138.79"/><rect class="cls-3" x="654.94" y="47.53" width="36.9" height="41.67" transform="translate(5.25 -39.87) rotate(3.4)"/><polygon class="cls-4" points="674.63 47.57 656.21 46.47 658.65 49.58 674.45 50.52 690.25 51.46 693.05 48.66 674.63 47.57"/><polygon class="cls-7" points="691.81 69.46 693.05 48.66 690.25 51.46 689.19 69.31 688.13 87.15 690.57 90.26 691.81 69.46"/><polygon class="cls-6" points="672.15 89.17 690.57 90.26 688.12 87.34 672.32 86.4 656.86 85.48 653.74 88.07 672.15 89.17"/><polygon class="cls-5" points="658.65 49.58 656.21 46.47 654.98 67.27 653.74 88.07 656.86 85.48 658.65 49.58"/><path class="cls-4" d="M683,51l-24.32-1.45-1.16,19.58S658.28,51.74,683,51Z"/><rect class="cls-3" x="694.14" y="49.86" width="36.9" height="41.67" transform="translate(5.46 -42.19) rotate(3.4)"/><polygon class="cls-4" points="713.83 49.9 695.41 48.81 697.85 51.92 713.65 52.86 729.45 53.8 732.25 51 713.83 49.9"/><polygon class="cls-7" points="731.01 71.8 732.25 51 729.45 53.8 728.39 71.64 727.33 89.48 729.77 92.59 731.01 71.8"/><polygon class="cls-6" points="711.35 91.5 729.77 92.59 727.32 89.68 711.52 88.74 696.06 87.82 692.94 90.4 711.35 91.5"/><polygon class="cls-5" points="697.85 51.92 695.41 48.81 694.17 69.6 692.94 90.4 696.06 87.82 697.85 51.92"/><path class="cls-4" d="M722.17,53.36l-24.32-1.44-1.16,19.57S697.48,54.08,722.17,53.36Z"/><rect class="cls-3" x="733.49" y="52.21" width="36.9" height="41.67" transform="translate(5.66 -44.53) rotate(3.4)"/><polygon class="cls-4" points="753.18 52.24 734.76 51.15 737.2 54.26 753 55.2 768.8 56.14 771.59 53.34 753.18 52.24"/><polygon class="cls-7" points="770.36 74.14 771.59 53.34 768.8 56.14 767.74 73.98 766.68 91.83 769.12 94.94 770.36 74.14"/><polygon class="cls-6" points="750.7 93.84 769.12 94.94 766.67 92.02 750.87 91.08 735.41 90.16 732.28 92.74 750.7 93.84"/><polygon class="cls-5" points="737.2 54.26 734.76 51.15 733.52 71.94 732.28 92.74 735.41 90.16 737.2 54.26"/><path class="cls-4" d="M761.52,55.7,737.2,54.26,736,73.83S736.83,56.42,761.52,55.7Z"/><rect class="cls-3" x="652.26" y="92.57" width="36.9" height="41.67" transform="translate(7.92 -39.63) rotate(3.4)"/><polygon class="cls-4" points="671.95 92.6 653.53 91.51 655.97 94.62 671.77 95.56 687.58 96.5 690.37 93.7 671.95 92.6"/><polygon class="cls-7" points="689.13 114.5 690.37 93.7 687.58 96.5 686.51 114.34 685.45 132.19 687.89 135.3 689.13 114.5"/><polygon class="cls-6" points="669.48 134.2 687.89 135.3 685.44 132.38 669.64 131.44 654.18 130.52 651.06 133.1 669.48 134.2"/><polygon class="cls-5" points="655.97 94.62 653.53 91.51 652.3 112.31 651.06 133.1 654.18 130.52 655.97 94.62"/><path class="cls-4" d="M680.29,96.06,656,94.62l-1.16,19.58S655.6,96.78,680.29,96.06Z"/><rect class="cls-3" x="691.46" y="94.9" width="36.9" height="41.67" transform="matrix(1, 0.06, -0.06, 1, 8.13, -41.95)"/><polygon class="cls-4" points="711.15 94.94 692.73 93.84 695.17 96.95 710.97 97.89 726.77 98.83 729.57 96.03 711.15 94.94"/><polygon class="cls-7" points="728.33 116.83 729.57 96.03 726.77 98.83 725.71 116.67 724.65 134.52 727.09 137.63 728.33 116.83"/><polygon class="cls-6" points="708.67 136.53 727.09 137.63 724.64 134.71 708.84 133.77 693.38 132.85 690.26 135.44 708.67 136.53"/><polygon class="cls-5" points="695.17 96.95 692.73 93.84 691.49 114.64 690.26 135.44 693.38 132.85 695.17 96.95"/><path class="cls-4" d="M719.49,98.4,695.17,97,694,116.53S694.8,99.11,719.49,98.4Z"/><rect class="cls-3" x="730.81" y="97.24" width="36.9" height="41.67" transform="translate(8.33 -44.29) rotate(3.4)"/><polygon class="cls-4" points="750.5 97.28 732.08 96.18 734.52 99.29 750.32 100.23 766.12 101.17 768.91 98.37 750.5 97.28"/><polygon class="cls-7" points="767.68 119.17 768.91 98.37 766.12 101.17 765.06 119.02 764 136.86 766.44 139.97 767.68 119.17"/><polygon class="cls-6" points="748.02 138.87 766.44 139.97 763.99 137.05 748.19 136.11 732.73 135.19 729.61 137.78 748.02 138.87"/><polygon class="cls-5" points="734.52 99.29 732.08 96.18 730.84 116.98 729.61 137.78 732.73 135.19 734.52 99.29"/><path class="cls-4" d="M758.84,100.74l-24.32-1.45-1.16,19.58S734.15,101.45,758.84,100.74Z"/><rect class="cls-3" x="649.61" y="137.24" width="36.9" height="41.67" transform="translate(10.57 -39.39) rotate(3.4)"/><polygon class="cls-4" points="669.29 137.27 650.88 136.18 653.32 139.29 669.12 140.23 684.92 141.17 687.71 138.37 669.29 137.27"/><polygon class="cls-7" points="686.47 159.17 687.71 138.37 684.92 141.17 683.86 159.01 682.79 176.85 685.24 179.97 686.47 159.17"/><polygon class="cls-6" points="666.82 178.87 685.24 179.97 682.78 177.05 666.98 176.11 651.52 175.19 648.4 177.77 666.82 178.87"/><polygon class="cls-5" points="653.32 139.29 650.88 136.18 649.64 156.97 648.4 177.77 651.52 175.19 653.32 139.29"/><path class="cls-4" d="M677.64,140.73l-24.32-1.44-1.17,19.57S653,141.45,677.64,140.73Z"/><rect class="cls-3" x="688.8" y="139.57" width="36.9" height="41.67" transform="translate(10.77 -41.72) rotate(3.4)"/><polygon class="cls-4" points="708.49 139.6 690.07 138.51 692.51 141.62 708.32 142.56 724.12 143.5 726.91 140.7 708.49 139.6"/><polygon class="cls-7" points="725.67 161.5 726.91 140.7 724.12 143.5 723.05 161.34 721.99 179.19 724.43 182.3 725.67 161.5"/><polygon class="cls-6" points="706.02 181.2 724.43 182.3 721.98 179.38 706.18 178.44 690.72 177.52 687.6 180.11 706.02 181.2"/><polygon class="cls-5" points="692.51 141.62 690.07 138.51 688.84 159.31 687.6 180.11 690.72 177.52 692.51 141.62"/><path class="cls-4" d="M716.83,143.07l-24.32-1.45-1.16,19.58S692.14,143.78,716.83,143.07Z"/><rect class="cls-3" x="728.15" y="141.91" width="36.9" height="41.67" transform="translate(10.98 -44.05) rotate(3.4)"/><polygon class="cls-4" points="747.84 141.95 729.42 140.85 731.86 143.96 747.66 144.9 763.47 145.84 766.26 143.04 747.84 141.95"/><polygon class="cls-7" points="765.02 163.84 766.26 143.04 763.47 145.84 762.4 163.68 761.34 181.53 763.78 184.64 765.02 163.84"/><polygon class="cls-6" points="745.37 183.54 763.78 184.64 761.33 181.72 745.53 180.78 730.07 179.86 726.95 182.45 745.37 183.54"/><polygon class="cls-5" points="731.86 143.96 729.42 140.85 728.19 161.65 726.95 182.45 730.07 179.86 731.86 143.96"/><path class="cls-4" d="M756.18,145.41,731.86,144l-1.16,19.58S731.49,146.12,756.18,145.41Z"/><rect class="cls-3" x="646.95" y="181.91" width="36.9" height="41.67" transform="translate(13.21 -39.16) rotate(3.4)"/><polygon class="cls-4" points="666.64 181.94 648.22 180.85 650.66 183.96 666.46 184.9 682.26 185.84 685.05 183.04 666.64 181.94"/><polygon class="cls-7" points="683.82 203.84 685.05 183.04 682.26 185.84 681.2 203.68 680.14 221.52 682.58 224.63 683.82 203.84"/><polygon class="cls-6" points="664.16 223.54 682.58 224.63 680.13 221.72 664.33 220.78 648.86 219.86 645.74 222.44 664.16 223.54"/><polygon class="cls-5" points="650.66 183.96 648.22 180.85 646.98 201.64 645.74 222.44 648.86 219.86 650.66 183.96"/><path class="cls-4" d="M675,185.4,650.66,184l-1.17,19.57S650.29,186.12,675,185.4Z"/><rect class="cls-3" x="686.15" y="184.24" width="36.9" height="41.67" transform="translate(13.42 -41.48) rotate(3.4)"/><polygon class="cls-4" points="705.83 184.27 687.42 183.18 689.86 186.29 705.66 187.23 721.46 188.17 724.25 185.37 705.83 184.27"/><polygon class="cls-7" points="723.01 206.17 724.25 185.37 721.46 188.17 720.4 206.01 719.34 223.86 721.78 226.97 723.01 206.17"/><polygon class="cls-6" points="703.36 225.87 721.78 226.97 719.32 224.05 703.52 223.11 688.06 222.19 684.94 224.78 703.36 225.87"/><polygon class="cls-5" points="689.86 186.29 687.42 183.18 686.18 203.98 684.94 224.78 688.06 222.19 689.86 186.29"/><path class="cls-4" d="M714.18,187.73l-24.32-1.44-1.17,19.58S689.49,188.45,714.18,187.73Z"/><rect class="cls-3" x="725.5" y="186.58" width="36.9" height="41.67" transform="translate(13.63 -43.81) rotate(3.4)"/><polygon class="cls-4" points="745.18 186.62 726.77 185.52 729.21 188.63 745.01 189.57 760.81 190.51 763.6 187.71 745.18 186.62"/><polygon class="cls-7" points="762.36 208.51 763.6 187.71 760.81 190.51 759.75 208.35 758.68 226.2 761.13 229.31 762.36 208.51"/><polygon class="cls-6" points="742.71 228.21 761.13 229.31 758.67 226.39 742.87 225.45 727.41 224.53 724.29 227.12 742.71 228.21"/><polygon class="cls-5" points="729.21 188.63 726.77 185.52 725.53 206.32 724.29 227.12 727.41 224.53 729.21 188.63"/><path class="cls-4" d="M753.53,190.08l-24.32-1.45L728,208.21S728.84,190.79,753.53,190.08Z"/><path class="cls-8" d="M694.65,138.3c2.14,1.68,4.6,3.2,6.66,3.32,4.77.28,5.07,4.09,14.61,13.7s15.52,7.3,24.72,13.44S759.36,176,765,179.25a68.48,68.48,0,0,1,7.88,4.83l-5.48,92.1-134.28-8,7.43-124.78h0a5.4,5.4,0,0,0-1.73-3.95c-1.85-1.71-7-5.87-10.46-7.41s-8.1-.08-8.1-.08,6.35-8.4,12-9.92,9.82-8.09,9.91-9.58-3.47-9.88-3-17,2.38-13.15,2.72-9.94,12.08,15.88,14,18.92-.36,6.09-.85,9.78,12.43,1.28,15.08,1.43,4.42,1.6,7.5,7.9,1.9,3.83,6.81,6.25,10.19,8.52,10.19,8.52Z"/><path class="cls-9" d="M702.94,141.9c2.29.73,3.62,2.8,6.87,6.7a7.62,7.62,0,0,0-1.48-.25,5.46,5.46,0,0,0-4,1.25,5.44,5.44,0,0,0-.63,7.4,6.29,6.29,0,0,0,3.84,1.85l-.64,7.54q-5.83-1.09-8.84-4.6a12,12,0,0,1-2.69-8.84,12.61,12.61,0,0,1,7.58-11ZM713.64,153c.7.74,1.45,1.53,2.28,2.36a37.67,37.67,0,0,0,4,3.53,12,12,0,0,1-3.24,4.53,14.13,14.13,0,0,1-7.19,3.11l-.06-7.76c2.68-.71,4.1-2.28,4.24-4.71a6.17,6.17,0,0,0,0-1.06ZM729,163.56c1.25.44,2.5.85,3.78,1.31l-6,101.12-3.84-.23L729,163.56Zm-43.19-33a31.19,31.19,0,0,1,3.7,2.73l-7.74,130.05-3.85-.22,7.89-132.56Zm33.38,51.56a12,12,0,0,1-4.28,8.61,12.77,12.77,0,1,1-7.68-22.32,12.17,12.17,0,0,1,8.8,4.29,12.66,12.66,0,0,1,3.16,9.42Zm-7.16-.64a5,5,0,0,0-1.41-3.88,5.74,5.74,0,0,0-7.87-.47,5.23,5.23,0,0,0-.46,7.58,5.79,5.79,0,0,0,7.89.47,5.05,5.05,0,0,0,1.85-3.7Zm5.66,16-.43,7.21-14.43-.86a3.38,3.38,0,0,0-2.28.41,3,3,0,0,0-.69,2.11l0,.37-7-.42.11-1.91a8.13,8.13,0,0,1,2.67-6,8.85,8.85,0,0,1,6.52-1.82l15.59.92Zm-13.37,20.78-6.4-.38.12-2.08-5.79-.34.43-7.21,15.44.92a9.47,9.47,0,0,1,6.8,2.86,9.24,9.24,0,0,1,2.07,7q-.25,4.29-2.62,6.19t-7,1.63l-15.69-.93.43-7.21,15.21.91a3.94,3.94,0,0,0,2-.23,1.33,1.33,0,0,0,.61-1.19c.07-1.14-.72-1.76-2.38-1.86l-3-.18-.13,2.08ZM708,241.88l-17.29-1,.43-7.21,17.29,1,.33-5.53,7,.41-1.09,18.24-7-.42.32-5.49Zm-3.73,20.95-5.38-.32.27-4.69a2.42,2.42,0,0,0-.2-1.37,1.13,1.13,0,0,0-1-.46,1.06,1.06,0,0,0-1,.35,3.65,3.65,0,0,0-.35,1.64l-.28,4.85-6.92-.41.34-5.66c.16-2.67.91-4.68,2.27-6a7,7,0,0,1,5.64-1.79l9.51.56a7.18,7.18,0,0,1,5.3,2.33,7.85,7.85,0,0,1,1.59,5.75l-.37,6.26-7-.41.27-4.6c.08-1.23-.29-1.87-1.1-1.92a1.07,1.07,0,0,0-1,.38,3.05,3.05,0,0,0-.37,1.55l-.24,4Z"/><rect class="cls-10" x="693.98" y="210.87" width="11.9" height="134.52" transform="translate(380.73 960.31) rotate(-86.6)"/><path class="cls-11" d="M772.9,184.08a68.48,68.48,0,0,0-7.88-4.83c-3.17-1.83-7.54-3-12.4-4.71-2.48-.43-5-.75-7.44-1.36-3.78-.93-7.06-2.75-10.64-4.21-6.95-2.84-13.14-4.7-18.62-10.22-9.54-9.61-9.84-13.42-14.61-13.7-2.06-.13-4.52-1.64-6.66-3.32,0,0-5.28-6.1-10.19-8.52s-3.72,0-6.81-6.26-4.85-7.73-7.5-7.89c-1.73-.1-7.82.89-11.71.57l-.7-.07-.1,0-.53-.09-.13,0a4.59,4.59,0,0,1-1-.34l-.1-.06a1.57,1.57,0,0,1-.3-.2l-.06,0a1.14,1.14,0,0,1-.26-.28l0-.08a.81.81,0,0,1-.11-.27l0-.1a1.39,1.39,0,0,1,0-.41,16.19,16.19,0,0,1,.49-2.24,1.27,1.27,0,0,1-.49-1.19,49.19,49.19,0,0,1,1.37-5.27,4.91,4.91,0,0,0-.52-1.09c-1.95-3-13.69-15.7-14-18.91,0-.18,0-.32-.07-.45a.19.19,0,0,1,0-.07.94.94,0,0,0-.1-.26s0,0,0,0a.22.22,0,0,0-.14-.09.26.26,0,0,0-.14.07s0,0,0,0a.86.86,0,0,0-.15.2c-.7,1.15-1.68,5.3-2,10.05.45,6.35,3.09,12.79,3,14.08a3.78,3.78,0,0,1-.45,1.29c.06.22.12.43.17.64s.1.38.14.56l0,.15c0,.12,0,.23.07.34a.5.5,0,0,1,0,.12,1.26,1.26,0,0,1,0,.32,1.17,1.17,0,0,1-.05.3s0,.08,0,.11c-.62,2-4.56,7.76-9.82,9.18-3,.8-6.16,3.51-8.49,5.89a10.2,10.2,0,0,1,4.57.68c3.5,1.54,8.61,5.7,10.46,7.41a5.4,5.4,0,0,1,1.73,3.95h0l-.09,1.51a23.6,23.6,0,0,1,3.91,6.41c1.53,3.94.06,4.65,1.52,4.08s10.73-2,14.65-1,16.13,6.14,17,7.12,6.83-.92,13.1,1,6.62,2.65,13.15,2.51,10.37-.05,13.46,1.6a90.87,90.87,0,0,0,8.55,3.37c2.39,1.89,4.42,3.41,6.31,3.83,3.28.72,16.64,5.17,19.84,6.16,5.18,1.6,9.18,5.8,14.72,6.3,1.65.15,4.22,1.52,6,1.56Z"/><path class="cls-12" d="M640,140.9a5.09,5.09,0,0,0-1.11-1.43c-1.85-1.71-7-5.87-10.46-7.41s-8.1-.08-8.1-.08,6.35-8.4,12-9.92,9.82-8.09,9.91-9.58c.07-1.12-1.92-6.14-2.74-11.6,3.15,2.73,9,7.46,15.7,12.73,0,.2-.07.4-.1.59-.17,1.3,1.3,1.84,3.39,2C673.3,127.87,690.41,141,690.41,141L733,169.14s-12.65-4.21-15.74-5.86-6.94-1.74-13.46-1.6-6.89-.54-13.15-2.51-12.23-.06-13.1-1-13.07-6.1-17-7.13-13.18.41-14.65,1,0-.13-1.52-4.08a24,24,0,0,0-4.44-7Z"/><path class="cls-13" d="M694.65,138.3c2.14,1.68,4.6,3.2,6.66,3.32,4.77.28,5.07,4.09,14.61,13.7s15.52,7.3,24.72,13.44S759.36,176,765,179.25a68.48,68.48,0,0,1,7.88,4.83s-7.7-.73-11-2.39-6.74-4.06-9.94-5.05-16.56-5.43-19.84-6.16-7-4.78-12.27-8.31-26.09-8.47-32.8-11.79-23.43-8.57-31.71-16.78S643,122.3,642.11,119.12a13.69,13.69,0,0,1,0-6.11,2.51,2.51,0,0,0,.12-.53c.09-1.49-3.47-9.88-3-17s2.38-13.15,2.72-9.94,12.08,15.88,14,18.92-.36,6.09-.85,9.78,12.43,1.28,15.08,1.43,4.42,1.6,7.5,7.9,1.9,3.83,6.81,6.25,10.19,8.52,10.19,8.52Z"/><path class="cls-14" d="M694.65,138.3c2.14,1.68,4.6,3.2,6.66,3.32,4.77.28,5.07,4.09,14.61,13.7s15.52,7.3,24.72,13.44S759.36,176,765,179.25a68.48,68.48,0,0,1,7.88,4.83s-7.7-.73-11-2.39-6.74-4.06-9.94-5.05-16.56-5.43-19.84-6.16-7-4.78-12.27-8.31c-2.71-1.82-9.54-4-16.44-6.16-.74-2.48-1.54-5.08-2.3-7.39-2.42-7.43-14.94-13.72-16.64-15.21s-3.31-1.4-4.26,4.6-.14,2.35-1,5.79a4.81,4.81,0,0,0,.66,3.48c-2.78-1.15-5.9-2.44-9-3.9A17.92,17.92,0,0,1,675.1,139c2.85-2.09,1.26-4.38,1.54-8s-2.1-8.3-3.71-10.26-5.21-2.37-6.29-1-1.85-.15-2.27-.9-3.67.28-5.69.12-2.18-.23-3.07-1.48-.54-.43-1.83,1.22-1.83,8.4-1.83,8.4-.68-6.55-1.55-7.53,1-5.93,1-7.92,1.23-5-1.33-6.6-.05-3.72-2.34-5.45-2.43-2.27-4.75-7.33a21.45,21.45,0,0,1-1.78-7.33c.33-.53.58-.41.69.58.34,3.21,12.08,15.88,14,18.92s-.36,6.09-.85,9.78,12.43,1.28,15.08,1.43,4.42,1.6,7.5,7.9,1.9,3.83,6.81,6.25,10.19,8.52,10.19,8.52Z"/><path class="cls-15" d="M556.22,259.56a2,2,0,0,1-.88-.2,214.79,214.79,0,0,1-67.46-52.3,2,2,0,0,1,1.2-3.26l49.48-7.47,7.71-41.06a2,2,0,0,1,3.44-1,134,134,0,0,0,39.42,30.62,2,2,0,0,1,1.07,1.52,2,2,0,0,1-.66,1.74l-42.92,37.46c.92,4.52,4.77,21.83,11.21,30.76a2,2,0,0,1-1.61,3.14Zm-63-52.38a210.74,210.74,0,0,0,57.79,45.51c-5.58-11.4-8.42-26.65-8.56-27.42a2,2,0,0,1,.65-1.85l41.59-36.31a137.51,137.51,0,0,1-35.3-27.19l-7.24,38.52a2,2,0,0,1-1.65,1.6Z"/><path class="cls-15" d="M556.22,259.56H556a2,2,0,0,1-1.39-.81c-7.93-11-11.94-32.55-12.11-33.47a2,2,0,0,1,3.46-1.64,213.29,213.29,0,0,0,22.69,22.7,2,2,0,0,1,.69,1.49,2,2,0,0,1-.67,1.51l-11.14,9.74A2,2,0,0,1,556.22,259.56ZM548.07,232c1.66,6.57,4.54,16.12,8.55,22.64l7.72-6.76A217.44,217.44,0,0,1,548.07,232Z"/><path class="cls-15" d="M851.16,259.56a2,2,0,0,1-1.61-3.14c6.45-8.94,10.29-26.24,11.21-30.76L817.84,188.2a2,2,0,0,1-.66-1.74,2,2,0,0,1,1.07-1.52,134,134,0,0,0,39.42-30.62,2,2,0,0,1,3.44,1l7.71,41.06,49.48,7.47a2,2,0,0,1,1.56,1.27,2,2,0,0,1-.36,2A214.79,214.79,0,0,1,852,259.36,2,2,0,0,1,851.16,259.56Zm-28.52-72.45,41.59,36.31a2,2,0,0,1,.65,1.85c-.14.77-3,16-8.56,27.42a210.74,210.74,0,0,0,57.79-45.51L866.83,200a2,2,0,0,1-1.66-1.6l-7.23-38.52A137.51,137.51,0,0,1,822.64,187.11Z"/><path class="cls-15" d="M851.16,259.56a2,2,0,0,1-1.31-.49l-11.14-9.74a2,2,0,0,1-.68-1.51,2,2,0,0,1,.7-1.49,214.23,214.23,0,0,0,22.69-22.7,2,2,0,0,1,3.46,1.64c-.17.92-4.18,22.47-12.12,33.47a2,2,0,0,1-1.38.81ZM843,247.84l7.72,6.76c4-6.53,6.9-16.07,8.55-22.64A217.44,217.44,0,0,1,843,247.84Z"/><path class="cls-15" d="M703.7,300.89a212.59,212.59,0,0,1-137.64-51.56A215.59,215.59,0,0,1,543,226.21a2,2,0,0,1,.2-2.79l58.21-50.8a2,2,0,0,1,1.45-.49,2,2,0,0,1,1.36.68,130.18,130.18,0,0,0,199,0,2,2,0,0,1,1.36-.68,2,2,0,0,1,1.45.49l58.21,50.8a2,2,0,0,1,.2,2.79,215.77,215.77,0,0,1-23.12,23.13A212.57,212.57,0,0,1,703.7,300.89ZM547.25,225.11a212.14,212.14,0,0,0,21.4,21.22,205.51,205.51,0,0,0,270.07,0,211.19,211.19,0,0,0,21.41-21.22l-55.23-48.2a134.09,134.09,0,0,1-202.42,0Z"/><path class="cls-15" d="M600.48,170.07s91.23,116.94,207.74,0L864.91,224s-146.07,179.39-322.44-1.66Z"/><path class="cls-16" d="M618.7,236.07c-4.06-1.84-8.09-3.83-12.06-5.95q1.8-3.35,3.58-6.69a12.22,12.22,0,0,0,1.59-3.83c0-.61-.38-1.14-1.19-1.58a1.93,1.93,0,0,0-2.23-.1,13.45,13.45,0,0,0-2.5,3.54l-10,17.64A10.85,10.85,0,0,0,594.3,243c0,.72.45,1.37,1.45,1.92a2.15,2.15,0,0,0,2.34.17c.61-.41,1.47-1.68,2.6-3.79.86-1.61,1.73-3.22,2.59-4.84q6.15,3.3,12.47,6.17c-.23.51-.47,1-.7,1.55-1.87,4.11-3.55,6.86-5.09,8.23s-3.9,2.11-7.11,2.12a21.94,21.94,0,0,1-10.5-3.06,25.73,25.73,0,0,1-8.61-7.08c-1.83-2.53-2.53-5-2.14-7.26s1.77-5.21,4.11-8.78l7-10.66a48.8,48.8,0,0,1,4.19-5.71,9.76,9.76,0,0,1,4.29-2.64,12.58,12.58,0,0,1,6-.34,20.83,20.83,0,0,1,6.76,2.46,20.48,20.48,0,0,1,7,5.84,10.12,10.12,0,0,1,2.16,6.38,27,27,0,0,1-2.69,8.67C619.85,233.56,619.28,234.82,618.7,236.07Z"/><path class="cls-16" d="M641.05,224.64l-3.3,9.25a11.69,11.69,0,0,1,3.82-.73,12.16,12.16,0,0,1,3.87.58,10.06,10.06,0,0,1,4.73,2.94,6.07,6.07,0,0,1,1.74,4,32.17,32.17,0,0,1-1.32,6.83q-3.2,11.91-6.4,23.82-6.86-1.85-13.61-4.11l8-23.86a14.14,14.14,0,0,0,.94-3.92,1.54,1.54,0,0,0-1.22-1.36,1.51,1.51,0,0,0-1.75.36,10.52,10.52,0,0,0-1.6,3.29q-4.31,12-8.59,24-6.72-2.4-13.32-5.23,8.58-20.06,17.18-40.1Q635.58,222.7,641.05,224.64Z"/><path class="cls-16" d="M682.8,254.92c-.3,2.9-.61,5.8-.91,8.71a29.57,29.57,0,0,1-1.33,7,9,9,0,0,1-3.09,3.88,11.69,11.69,0,0,1-5.58,2.18,24,24,0,0,1-7.49-.24,29.72,29.72,0,0,1-7.66-2.28,11,11,0,0,1-4.39-3.43,8.56,8.56,0,0,1-1.56-4.36,22.94,22.94,0,0,1,.91-6.81q1.11-4.44,2.21-8.89a20.35,20.35,0,0,1,3.06-7.27,9.82,9.82,0,0,1,5.25-3.41,17.67,17.67,0,0,1,8.06-.13,21.41,21.41,0,0,1,6.64,2.16,11.87,11.87,0,0,1,4.09,3.39,10.09,10.09,0,0,1,1.78,3.83A20.29,20.29,0,0,1,682.8,254.92Zm-12.15-4.36a10.68,10.68,0,0,0,.24-3.47,1.43,1.43,0,0,0-1.29-.94,1.5,1.5,0,0,0-1.57.44,9.64,9.64,0,0,0-1,3.34q-1.47,7.94-2.93,15.87a8.37,8.37,0,0,0-.19,3.32,1.61,1.61,0,0,0,1.44,1,1.67,1.67,0,0,0,1.71-.42,7.15,7.15,0,0,0,.88-2.91Z"/><path class="cls-16" d="M715,256.7q-6,.32-12,.27l0-4.12a7.21,7.21,0,0,0-.38-2.93,1.52,1.52,0,0,0-1.45-.79,1.49,1.49,0,0,0-1.44.65,7.83,7.83,0,0,0-.44,3q-.21,8.43-.41,16.86a5.26,5.26,0,0,0,.54,2.89,2,2,0,0,0,1.78,1,1.87,1.87,0,0,0,1.89-1,9.6,9.6,0,0,0,.5-3.77c0-1.42,0-2.84,0-4.26q5.88,0,11.75-.28a44.45,44.45,0,0,1-.06,6.44,8.94,8.94,0,0,1-2.08,4.49,11.48,11.48,0,0,1-5,3.53,25.39,25.39,0,0,1-17.22-.78,9.33,9.33,0,0,1-4.56-4.74,18.3,18.3,0,0,1-.72-8.16q.43-5.07.86-10.12a17.75,17.75,0,0,1,1.62-6.76,9.8,9.8,0,0,1,4.62-3.83,17.67,17.67,0,0,1,8-1.51,17.92,17.92,0,0,1,8,1.78,9.63,9.63,0,0,1,4.62,4.4A21.59,21.59,0,0,1,715,256.7Z"/><path class="cls-16" d="M747.17,251.6l1.8,8.57a29,29,0,0,1,.85,7.05,9,9,0,0,1-1.76,4.64,11.77,11.77,0,0,1-4.66,3.78,24.07,24.07,0,0,1-7.2,2.05,29.27,29.27,0,0,1-8,.16,10.91,10.91,0,0,1-5.22-1.92,8.62,8.62,0,0,1-2.8-3.68,23.25,23.25,0,0,1-1.2-6.77q-.32-4.56-.61-9.14a20.24,20.24,0,0,1,.68-7.85,9.81,9.81,0,0,1,3.93-4.85,17.56,17.56,0,0,1,7.62-2.58,21.69,21.69,0,0,1,7,0,11.82,11.82,0,0,1,4.93,2,10.14,10.14,0,0,1,2.87,3.1A20.12,20.12,0,0,1,747.17,251.6Zm-12.91-.44a10.69,10.69,0,0,0-.84-3.38,1.42,1.42,0,0,0-1.52-.5,1.48,1.48,0,0,0-1.35.9,9.85,9.85,0,0,0,.08,3.48q1,8,2.06,16a8.24,8.24,0,0,0,.82,3.22,1.64,1.64,0,0,0,1.69.55,1.67,1.67,0,0,0,1.5-.92,7.41,7.41,0,0,0-.05-3Q735.45,259.32,734.26,251.16Z"/><path class="cls-16" d="M760.85,226.94c.56,1.76,1.11,3.51,1.66,5.27a18.15,18.15,0,0,0-4.07,1.55c-.36.33-.41,1-.15,1.88.11.37.21.73.31,1.09,1.63-.46,3.26-.95,4.87-1.46q.85,2.7,1.7,5.4l-2.82.86q4.17,14,8.36,28c-4.54,1.36-9.12,2.57-13.71,3.64q-3.33-14.24-6.64-28.47l-2.48.56c-.41-1.85-.81-3.69-1.22-5.53l2.42-.55a26.41,26.41,0,0,1-.82-4.65,4.08,4.08,0,0,1,.76-2.35,7,7,0,0,1,2.43-2.07,28.73,28.73,0,0,1,5.35-2C758.16,227.77,759.51,227.36,760.85,226.94Z"/><path class="cls-16" d="M791.09,223.27l15.81,32.07q-6.6,3.25-13.33,6.06c-.3-.95-.61-1.89-.92-2.84a8.91,8.91,0,0,1-2.34,3.89,12.43,12.43,0,0,1-4.36,2.66,13.46,13.46,0,0,1-5.31,1A6.54,6.54,0,0,1,777,265a7.15,7.15,0,0,1-2.11-2.44,51.4,51.4,0,0,1-2.14-5.78l-7.48-22.93q5.73-1.86,11.36-4.1,4.49,11.31,9,22.63a20.36,20.36,0,0,0,2.13,4.48c.4.41,1,.43,1.94.07s1.43-.88,1.4-1.46a23.6,23.6,0,0,0-1.73-4.91L780,228.31Q785.61,226,791.09,223.27Z"/><path class="cls-16" d="M805.72,215.26q1,2.13,2,4.28c-.15-3.83,1.11-6.69,3.85-8.73l6.9,10.53a13.81,13.81,0,0,0-4.05,3.54,3.6,3.6,0,0,0-.61,3,33.05,33.05,0,0,0,3.09,5.89l7.3,12.09q-6.26,3.78-12.67,7.12L795,221.28Q800.43,218.45,805.72,215.26Z"/><text class="cls-17" transform="translate(997.69 129.19)">ینیریش و تلکش عاونا دیرخ<tspan x="330.56" y="0"> </tspan></text></g></g></svg>